<svg xmlns="http://www.w3.org/2000/svg" viewBox="0 0 64 64"><radialGradient id="1L~vK6Vkm4YdkFWwqMWTua" cx="32" cy="31.5" r="31.751" gradientUnits="userSpaceOnUse" spreadMethod="reflect"><stop offset="0" stop-color="#c5f1ff"/><stop offset=".35" stop-color="#cdf3ff"/><stop offset=".907" stop-color="#e4faff"/><stop offset="1" stop-color="#e9fbff"/></radialGradient><path fill="url(#1L~vK6Vkm4YdkFWwqMWTua)" d="M60.5,32c2.168,0,3.892-1.998,3.422-4.243C63.58,26.122,62.056,25,60.385,25L43,25v-7 l14.386,0c1.67,0,3.195-1.122,3.537-2.757C61.392,12.997,59.668,11,57.5,11H46c-1.105,0-2-0.895-2-2v0c0-1.105,0.895-2,2-2l4.385,0 c1.67,0,3.195-1.122,3.537-2.757C54.392,1.998,52.668,0,50.5,0L10.615,0C8.944,0,7.42,1.122,7.078,2.757C6.608,5.002,8.332,7,10.5,7 H13c1.105,0,2,0.895,2,2v0c0,1.105-0.895,2-2,2l-6.385,0c-1.67,0-3.195,1.122-3.537,2.757C2.608,16.002,4.332,18,6.5,18H22l0,15 L3.614,33c-1.67,0-3.195,1.122-3.537,2.757C-0.392,38.002,1.332,40,3.5,40H4c1.105,0,2,0.895,2,2v0c0,1.105-0.895,2-2,2H3.615 c-1.67,0-3.195,1.122-3.537,2.757C-0.392,49.002,1.332,51,3.5,51h21.115C25.932,51,27,52.068,27,53.385v0.229 C27,54.932,25.932,56,24.615,56l-5,0c-1.67,0-3.195,1.122-3.537,2.757C15.608,61.002,17.332,63,19.5,63l38.885,0 c1.67,0,3.195-1.122,3.537-2.757C62.392,57.998,60.668,56,58.5,56h-3.115C54.068,56,53,54.932,53,53.615v-0.229 C53,52.068,54.068,51,55.385,51h0c1.67,0,3.195-1.122,3.537-2.757C59.392,45.998,57.668,44,55.5,44H43l0-12H60.5z"/><linearGradient id="1L~vK6Vkm4YdkFWwqMWTub" x1="32" x2="32" y1="66.567" y2="16.567" gradientUnits="userSpaceOnUse" spreadMethod="reflect"><stop offset="0" stop-color="#155cde"/><stop offset=".278" stop-color="#1f7fe5"/><stop offset=".569" stop-color="#279ceb"/><stop offset=".82" stop-color="#2cafef"/><stop offset="1" stop-color="#2eb5f0"/></linearGradient><path fill="url(#1L~vK6Vkm4YdkFWwqMWTub)" d="M52,9H12c-2.761,0-5,2.239-5,5v30v12.35C7,57.814,8.186,59,9.65,59h0.007 c0.844,0,1.638-0.402,2.137-1.083l5.041-6.874C17.777,49.759,19.274,49,20.867,49H52c2.761,0,5-2.239,5-5V14 C57,11.239,54.761,9,52,9z"/><linearGradient id="1L~vK6Vkm4YdkFWwqMWTuc" x1="14.5" x2="14.5" y1="24" y2="9" gradientUnits="userSpaceOnUse" spreadMethod="reflect"><stop offset="0" stop-color="#4cbcf1"/><stop offset=".989" stop-color="#4dc0f2"/></linearGradient><path fill="url(#1L~vK6Vkm4YdkFWwqMWTuc)" d="M15.5,24H7V14c0-2.761,2.239-5,5-5h7.5c1.381,0,2.5,1.119,2.5,2.5v0 c0,1.381-1.119,2.5-2.5,2.5h-5c-1.381,0-2.5,1.119-2.5,2.5v0c0,1.381,1.119,2.5,2.5,2.5h1c1.381,0,2.5,1.119,2.5,2.5v0 C18,22.881,16.881,24,15.5,24z"/><path fill="#fff" d="M30,18h4c1.105,0,2,0.895,2,2v19c0,1.105-0.895,2-2,2h-4c-1.105,0-2-0.895-2-2V20 C28,18.895,28.895,18,30,18z"/><linearGradient id="1L~vK6Vkm4YdkFWwqMWTud" x1="43" x2="43" y1="41" y2="25" gradientUnits="userSpaceOnUse" spreadMethod="reflect"><stop offset="0" stop-color="#bde0f9"/><stop offset=".053" stop-color="#bde1f9"/><stop offset="1" stop-color="#bfe7fa"/></linearGradient><path fill="url(#1L~vK6Vkm4YdkFWwqMWTud)" d="M41,25h4c1.105,0,2,0.895,2,2v12c0,1.105-0.895,2-2,2h-4c-1.105,0-2-0.895-2-2V27 C39,25.895,39.895,25,41,25z"/><linearGradient id="1L~vK6Vkm4YdkFWwqMWTue" x1="21" x2="21" y1="41" y2="26.483" gradientUnits="userSpaceOnUse" spreadMethod="reflect"><stop offset="0" stop-color="#bde0f9"/><stop offset=".053" stop-color="#bde1f9"/><stop offset="1" stop-color="#bfe7fa"/></linearGradient><path fill="url(#1L~vK6Vkm4YdkFWwqMWTue)" d="M19,32h4c1.105,0,2,0.895,2,2v5c0,1.105-0.895,2-2,2h-4c-1.105,0-2-0.895-2-2v-5 C17,32.895,17.895,32,19,32z"/></svg>